C:\Users\r0593348\3dpredictsim\Results\Batchsim_tmt_linear\Pog_s1_tmt_bCst_d02_k1000_ig24_pas_GRF.mot
nRows=20
nColumns=19

name C:\Users\r0593348\3dpredictsim\Results\Batchsim_tmt_linear\Pog_s1_tmt_bCst_d02_k1000_ig24_pas_GRF.mot
datacolumns 19
datarows 20
range 0.0000000000 0.2091913693
endheader
time 	ground_force_vx	ground_force_vy	ground_force_vz	ground_force_px	ground_force_py	ground_force_pz	1_ground_force_vx	1_ground_force_vy	1_ground_force_vz	1_ground_force_px	1_ground_force_py	1_ground_force_pz	ground_torque_x	ground_torque_y	ground_torque_z	1_ground_torque_x	1_ground_torque_y	1_ground_torque_z
        0.0000000000	      -75.9942077671	       61.2325009205	       27.1163839866	        0.1721526408	        0.0000000000	        0.0387420692	      101.1198763696	      526.8831287482	       -3.1851294239	       -0.3100832385	        0.0000000000	       -0.0359525851	        0.0000000000	        0.0000000000	        0.0000000000	        0.0000000000	        0.0000000000	        0.0000000000	
        0.0110100721	     -118.6443656464	      133.6462921262	       68.8133700956	        0.1798554236	        0.0000000000	        0.0364042668	       85.3432818405	      450.4594164480	       -7.2921710306	       -0.3070069953	        0.0000000000	       -0.0352081064	        0.0000000000	        0.0000000000	        0.0000000000	        0.0000000000	        0.0000000000	        0.0000000000	
        0.0220201441	      -45.8630297826	      263.6195331817	       34.7244481130	        0.1855737627	        0.0000000000	        0.0339665818	       69.2118835226	      365.5722051425	       -9.0430386904	       -0.3024113391	        0.0000000000	       -0.0337461449	        0.0000000000	        0.0000000000	        0.0000000000	        0.0000000000	        0.0000000000	        0.0000000000	
        0.0330302162	      -38.0708716914	      408.6905504867	        5.6509195070	        0.1888136866	        0.0000000000	        0.0336856644	       47.9261189960	      274.2891457345	       -5.5375917574	       -0.2950393370	        0.0000000000	       -0.0307981015	        0.0000000000	        0.0000000000	        0.0000000000	        0.0000000000	        0.0000000000	        0.0000000000	
        0.0440402883	      -66.5963249212	      583.5970574160	       -3.9083889094	        0.1962822448	        0.0000000000	        0.0358545759	       22.3628715442	      179.5378495304	       -7.0006311559	       -0.2813290764	        0.0000000000	       -0.0246221112	        0.0000000000	        0.0000000000	        0.0000000000	        0.0000000000	        0.0000000000	        0.0000000000	
        0.0550503604	      -93.7921822163	      731.5870059205	       -9.9345159871	        0.2031319175	        0.0000000000	        0.0379185129	        4.9737664328	      134.1411609146	      -11.9328788189	       -0.2723498426	        0.0000000000	       -0.0199887056	        0.0000000000	        0.0000000000	        0.0000000000	        0.0000000000	        0.0000000000	        0.0000000000	
        0.0660604324	     -106.3679166766	      807.2555560544	      -11.7786616106	        0.2077990952	        0.0000000000	        0.0392084530	        2.0178682893	      103.2545926322	      -12.5277564584	       -0.2719250768	        0.0000000000	       -0.0201009570	        0.0000000000	        0.0000000000	        0.0000000000	        0.0000000000	        0.0000000000	        0.0000000000	
        0.0770705045	     -105.7189722737	      825.0989903721	      -12.3508893225	        0.2111854566	        0.0000000000	        0.0399898263	       -2.0230622783	       66.9942786084	      -11.4914968358	       -0.2714551626	        0.0000000000	       -0.0201515506	        0.0000000000	        0.0000000000	        0.0000000000	        0.0000000000	        0.0000000000	        0.0000000000	
        0.0880805766	      -99.1456770209	      814.7980181030	      -12.6045310032	        0.2141620946	        0.0000000000	        0.0404451724	       -7.9090359114	       27.3516443240	       -5.8062347932	       -0.2718118593	        0.0000000000	       -0.0198698389	        0.0000000000	        0.0000000000	        0.0000000000	        0.0000000000	        0.0000000000	        0.0000000000	
        0.0990906486	      -89.9023654123	      797.2271242335	      -13.3440736403	        0.2173412965	        0.0000000000	        0.0406668953	        0.0990566970	       -0.0981326442	        0.0025520748	        0.0000000000	        0.0000000000	        0.0000000000	        0.0000000000	        0.0000000000	        0.0000000000	        0.0000000000	        0.0000000000	        0.0000000000	
        0.1101007207	      -78.3042266386	      771.3753973415	      -14.2835360441	        0.2206604692	        0.0000000000	        0.0407710297	        0.0001397114	       -0.0001134601	       -0.0000075364	        0.0000000000	        0.0000000000	        0.0000000000	        0.0000000000	        0.0000000000	        0.0000000000	        0.0000000000	        0.0000000000	        0.0000000000	
        0.1211107928	      -68.1550061656	      743.1305172979	      -14.8030332087	        0.2246672546	        0.0000000000	        0.0407830210	        0.0000513300	       -0.0000362212	       -0.0000037106	        0.0000000000	        0.0000000000	        0.0000000000	        0.0000000000	        0.0000000000	        0.0000000000	        0.0000000000	        0.0000000000	        0.0000000000	
        0.1321208648	      -59.0932512907	      715.3113882394	      -15.2204473619	        0.2291208837	        0.0000000000	        0.0407062081	        0.0004556328	       -0.0002881185	       -0.0000369905	        0.0000000000	        0.0000000000	        0.0000000000	        0.0000000000	        0.0000000000	        0.0000000000	        0.0000000000	        0.0000000000	        0.0000000000	
        0.1431309369	      -49.9047950398	      686.5842991289	      -15.7968054694	        0.2334884419	        0.0000000000	        0.0406545561	        0.0051248173	       -0.0029694281	       -0.0004423076	        0.0000000000	        0.0000000000	        0.0000000000	        0.0000000000	        0.0000000000	        0.0000000000	        0.0000000000	        0.0000000000	        0.0000000000	
        0.1541410090	      -41.1988546645	      659.2801593204	      -16.3416137102	        0.2377940618	        0.0000000000	        0.0406644478	       -0.0250838167	        0.0135124079	        0.0022576609	        0.0000000000	        0.0000000000	        0.0000000000	        0.0000000000	        0.0000000000	        0.0000000000	        0.0000000000	        0.0000000000	        0.0000000000	
        0.1651510811	      -33.8061133497	      635.6672479199	      -16.7915559514	        0.2421444065	        0.0000000000	        0.0407201305	       -0.0175329381	        0.0088805329	        0.0016279599	        0.0000000000	        0.0000000000	        0.0000000000	        0.0000000000	        0.0000000000	        0.0000000000	        0.0000000000	        0.0000000000	        0.0000000000	
        0.1761611531	      -27.6135652990	      616.2206953111	      -17.3764727763	        0.2465007744	        0.0000000000	        0.0407977137	       -0.0123285107	        0.0059245898	        0.0011725408	        0.0000000000	        0.0000000000	        0.0000000000	        0.0000000000	        0.0000000000	        0.0000000000	        0.0000000000	        0.0000000000	        0.0000000000	
        0.1871712252	      -22.1887303829	      601.3219530496	      -17.7541204926	        0.2511537051	        0.0000000000	        0.0408805377	       -0.0112066152	        0.0051489644	        0.0010810166	        0.0000000000	        0.0000000000	        0.0000000000	        0.0000000000	        0.0000000000	        0.0000000000	        0.0000000000	        0.0000000000	        0.0000000000	
        0.1981812973	      -18.3123095060	      591.3042656007	      -17.7493153039	        0.2562223096	        0.0000000000	        0.0409416386	       -0.0136475828	        0.0060296375	        0.0013260556	        0.0000000000	        0.0000000000	        0.0000000000	        0.0000000000	        0.0000000000	        0.0000000000	        0.0000000000	        0.0000000000	        0.0000000000	
        0.2091913693	      -15.2954993782	      585.3986653366	      -17.7288115681	        0.2616799460	        0.0000000000	        0.0409534924	       -0.0214247281	        0.0091448625	        0.0020775339	        0.0000000000	        0.0000000000	        0.0000000000	        0.0000000000	        0.0000000000	        0.0000000000	        0.0000000000	        0.0000000000	        0.0000000000	
